<svg xmlns="http://www.w3.org/2000/svg" width="760" height="180" viewBox="0 0 760 180" role="img" aria-labelledby="title desc">
  <title id="title">PhotoKingShot by GKC Productions full logo for dark backgrounds</title>
  <desc id="desc">Gold camera crown icon with PhotoKingShot wordmark in white and gold.</desc>
  <g fill="none" stroke="#D9A93B" stroke-width="8" stroke-linecap="round" stroke-linejoin="round" transform="translate(22 22)">
    <path d="M34 55h23l12-15h34l12 15h23c12 0 22 10 22 22v42c0 12-10 22-22 22H34c-12 0-22-10-22-22V77c0-12 10-22 22-22Z"/>
    <path d="M49 40 64 13l22 27 22-27 15 27"/>
    <path d="M58 40h56"/>
    <circle cx="86" cy="100" r="30"/>
    <path d="M86 70v60M56 100h60M64 78l44 44M108 78l-44 44"/>
  </g>
  <text x="218" y="83" fill="#FFFFFF" font-family="Arial, Helvetica, sans-serif" font-size="54" font-weight="900" letter-spacing="0">PhotoKing<tspan fill="#D9A93B">Shot</tspan></text>
  <text x="222" y="126" fill="#D9A93B" font-family="Arial, Helvetica, sans-serif" font-size="19" font-weight="800" letter-spacing="7">BY GKC PRODUCTIONS</text>
  <path d="M222 139h310" stroke="#D9A93B" stroke-width="3" stroke-linecap="round" opacity=".7"/>
</svg>
