<svg xmlns="http://www.w3.org/2000/svg" viewBox="0 0 430 118" role="img" aria-label="PhotoKingShot by GKC Productions">
  <g fill="none" stroke="#D9A93B" stroke-width="4" stroke-linecap="round" stroke-linejoin="round">
    <path d="M34 36l8-12 8 12 8-15 8 15 8-12 8 12" />
    <path d="M35 45h46" />
    <path d="M24 47h68c6 0 10 4 10 10v31c0 6-4 10-10 10H24c-6 0-10-4-10-10V57c0-6 4-10 10-10Z" />
    <path d="M30 47l8-11h40l8 11" />
    <circle cx="58" cy="73" r="18" />
    <path d="M58 55l8 15H50l8 22" />
    <path d="M83 60h8" />
  </g>
  <text x="122" y="58" font-family="Arial, Helvetica, sans-serif" font-size="34" font-weight="900" letter-spacing="-1">
    <tspan fill="#080808">PhotoKing</tspan><tspan fill="#C89423">Shot</tspan>
  </text>
  <path d="M124 70h252" stroke="#D9A93B" stroke-width="2" stroke-linecap="round"/>
  <text x="124" y="92" fill="#B98213" font-family="Arial, Helvetica, sans-serif" font-size="12" font-weight="800" letter-spacing="3.2">BY GKC PRODUCTIONS</text>
</svg>
