<svg xmlns="http://www.w3.org/2000/svg" viewBox="0 0 96 96" role="img" aria-label="PhotoKingShot camera crown mark">
  <g fill="none" stroke="#D9A93B" stroke-width="4.5" stroke-linecap="round" stroke-linejoin="round">
    <path d="M28 29l7-10 7 10 7-12 7 12 7-10 7 10" />
    <path d="M30 37h36" />
    <path d="M20 39h56c5 0 9 4 9 9v25c0 5-4 9-9 9H20c-5 0-9-4-9-9V48c0-5 4-9 9-9Z" />
    <path d="M25 39l6-9h34l6 9" />
    <circle cx="48" cy="61" r="15" />
    <path d="M48 46l7 12h-14l7 18" />
    <path d="M69 50h6" />
  </g>
</svg>
