<svg width="110" height="110" viewBox="0 0 110 110" fill="none" xmlns="http://www.w3.org/2000/svg" role="img" aria-label="PhotoKingShot camera crown mark">
  <g stroke="#D9A93B" stroke-linecap="round" stroke-linejoin="round">
    <rect x="24" y="38" width="80" height="56" rx="13" fill="none" stroke-width="5"/>
    <path d="M30 38H45L51 28H78L84 38H99" fill="none" stroke-width="5"/>
    <path d="M48 27L60 10L72 27L84 10L96 27" fill="none" stroke-width="5"/>
    <path d="M51 27H93" fill="none" stroke-width="5"/>
    <path d="M17 55H30" fill="none" stroke-width="5"/>
    <path d="M90 54H98" fill="none" stroke-width="4"/>
    <circle cx="64" cy="66" r="22" fill="none" stroke-width="5"/>
  </g>
  <path d="M64 44V66L48 52" fill="#D9A93B"/>
  <path d="M82 54L64 66L68 45" fill="#D9A93B"/>
  <path d="M84 74L64 66L82 54" fill="#D9A93B"/>
  <path d="M64 88V66L84 74" fill="#D9A93B"/>
  <path d="M46 78L64 66L60 87" fill="#D9A93B"/>
  <path d="M44 58L64 66L46 78" fill="#D9A93B"/>
</svg>
