<svg xmlns="http://www.w3.org/2000/svg" viewBox="0 0 120 120" role="img" aria-label="PhotoKingShot camera crown mark">
  <g fill="none" stroke="#FFFFFF" stroke-width="5" stroke-linecap="round" stroke-linejoin="round">
    <path d="M30 43h60" />
    <path d="M22 47h76c7 0 12 5 12 12v33c0 7-5 12-12 12H22c-7 0-12-5-12-12V59c0-7 5-12 12-12Z" />
    <path d="M30 47l9-13h42l9 13" />
    <path d="M34 34l9-15 11 13 6-18 6 18 11-13 9 15" />
    <path d="M39 40h42" />
    <circle cx="60" cy="76" r="20" />
    <circle cx="60" cy="76" r="7" />
    <path d="M60 56l9 16" />
    <path d="M80 73l-18 1" />
    <path d="M70 93l-10-17" />
    <path d="M50 93l9-17" />
    <path d="M40 73l18 3" />
    <path d="M50 59l10 17" />
    <path d="M88 61h9" />
  </g>
</svg>
