<svg xmlns="http://www.w3.org/2000/svg" viewBox="0 0 500 130" role="img" aria-label="PhotoKingShot by GKC Productions">
  <g fill="none" stroke="#D9A93B" stroke-width="4.2" stroke-linecap="round" stroke-linejoin="round">
    <path d="M34 50h76" />
    <path d="M24 54h96c8 0 13 5 13 13v40c0 8-5 13-13 13H24c-8 0-13-5-13-13V67c0-8 5-13 13-13Z" />
    <path d="M34 54l11-16h54l11 16" />
    <path d="M40 39l11-18 14 15 7-23 7 23 14-15 11 18" />
    <path d="M47 46h50" />
    <circle cx="72" cy="88" r="24" />
    <circle cx="72" cy="88" r="8" />
    <path d="M72 64l11 20M96 84l-22 1M84 109L72 88M60 109l11-21M48 84l22 4M60 67l12 21" />
    <path d="M108 72h10" />
  </g>
  <text x="158" y="66" font-family="Arial, Helvetica, sans-serif" font-size="40" font-weight="900" letter-spacing="-1.4">
    <tspan fill="#FFFFFF">PhotoKing</tspan><tspan fill="#D9A93B">Shot</tspan>
  </text>
  <path d="M160 80h286" stroke="#D9A93B" stroke-width="2" stroke-linecap="round"/>
  <text x="162" y="105" fill="#D9A93B" font-family="Arial, Helvetica, sans-serif" font-size="12" font-weight="800" letter-spacing="4">BY GKC PRODUCTIONS</text>
</svg>
